v 0.0 1.0 0.0
v 0.0 1.0 0.0
v 0.0 1.0 0.0
v 0.0 1.0 0.0
v 0.0 1.0 0.0
v 0.0 1.0 0.0
v 0.0 1.0 0.0
v 0.0 1.0 0.0
v 0.7071067811865475 0.7071067811865476 0.0
v 0.5 0.7071067811865476 0.4999999999999999
v 4.329780281177466e-17 0.7071067811865476 0.7071067811865475
v -0.4999999999999999 0.7071067811865476 0.5
v -0.7071067811865475 0.7071067811865476 8.659560562354932e-17
v -0.5000000000000001 0.7071067811865476 -0.4999999999999999
v -1.2989340843532398e-16 0.7071067811865476 -0.7071067811865475
v 0.49999999999999983 0.7071067811865476 -0.5000000000000001
v 0.7071067811865475 0.7071067811865476 -1.7319121124709863e-16
v 1.0 6.123233995736766e-17 0.0
v 0.7071067811865476 6.123233995736766e-17 0.7071067811865475
v 6.123233995736766e-17 6.123233995736766e-17 1.0
v -0.7071067811865475 6.123233995736766e-17 0.7071067811865476
v -1.0 6.123233995736766e-17 1.2246467991473532e-16
v -0.7071067811865477 6.123233995736766e-17 -0.7071067811865475
v -1.8369701987210297e-16 6.123233995736766e-17 -1.0
v 0.7071067811865474 6.123233995736766e-17 -0.7071067811865477
v 1.0 6.123233995736766e-17 -2.4492935982947064e-16
v 0.7071067811865476 -0.7071067811865475 0.0
v 0.5000000000000001 -0.7071067811865475 0.5
v 4.329780281177467e-17 -0.7071067811865475 0.7071067811865476
v -0.5 -0.7071067811865475 0.5000000000000001
v -0.7071067811865476 -0.7071067811865475 8.659560562354934e-17
v -0.5000000000000001 -0.7071067811865475 -0.5
v -1.29893408435324e-16 -0.7071067811865475 -0.7071067811865476
v 0.4999999999999999 -0.7071067811865475 -0.5000000000000001
v 0.7071067811865476 -0.7071067811865475 -1.7319121124709868e-16
v 1.2246467991473532e-16 -1.0 0.0
v 8.659560562354934e-17 -1.0 8.659560562354932e-17
v 7.498798913309288e-33 -1.0 1.2246467991473532e-16
v -8.659560562354932e-17 -1.0 8.659560562354934e-17
v -1.2246467991473532e-16 -1.0 1.4997597826618576e-32
v -8.659560562354935e-17 -1.0 -8.659560562354932e-17
v -2.2496396739927864e-32 -1.0 -1.2246467991473532e-16
v 8.65956056235493e-17 -1.0 -8.659560562354935e-17
v 1.2246467991473532e-16 -1.0 -2.999519565323715e-32
v -0.7071067811865475 -0.7071067811865477 0.0
v -0.5 -0.7071067811865477 -0.4999999999999999
v -4.329780281177466e-17 -0.7071067811865477 -0.7071067811865475
v 0.4999999999999999 -0.7071067811865477 -0.5
v 0.7071067811865475 -0.7071067811865477 -8.659560562354932e-17
v 0.5000000000000001 -0.7071067811865477 0.4999999999999999
v 1.2989340843532398e-16 -0.7071067811865477 0.7071067811865475
v -0.49999999999999983 -0.7071067811865477 0.5000000000000001
v -0.7071067811865475 -0.7071067811865477 1.7319121124709863e-16
vt 0.125 1.0
vt 0.25 1.0
vt 0.375 1.0
vt 0.5 1.0
vt 0.625 1.0
vt 0.75 1.0
vt 0.875 1.0
vt 1.0 1.0
vt 0.0 0.75
vt 0.125 0.75
vt 0.25 0.75
vt 0.375 0.75
vt 0.5 0.75
vt 0.625 0.75
vt 0.75 0.75
vt 0.875 0.75
vt 1.0 0.75
vt 0.0 0.5
vt 0.125 0.5
vt 0.25 0.5
vt 0.375 0.5
vt 0.5 0.5
vt 0.625 0.5
vt 0.75 0.5
vt 0.875 0.5
vt 1.0 0.5
vt 0.0 0.25
vt 0.125 0.25
vt 0.25 0.25
vt 0.375 0.25
vt 0.5 0.25
vt 0.625 0.25
vt 0.75 0.25
vt 0.875 0.25
vt 1.0 0.25
vt 0.0 0.0
vt 0.125 0.0
vt 0.25 0.0
vt 0.375 0.0
vt 0.5 0.0
vt 0.625 0.0
vt 0.75 0.0
vt 0.875 0.0
vt 1.0 0.0
vt 0.0 -0.25
vt 0.125 -0.25
vt 0.25 -0.25
vt 0.375 -0.25
vt 0.5 -0.25
vt 0.625 -0.25
vt 0.75 -0.25
vt 0.875 -0.25
vt 1.0 -0.25
vn 0.0 1.0 0.0
vn 0.0 1.0 0.0
vn 0.0 1.0 0.0
vn 0.0 1.0 0.0
vn 0.0 1.0 0.0
vn 0.0 1.0 0.0
vn 0.0 1.0 0.0
vn 0.0 1.0 0.0
vn 0.7071067811865475 0.7071067811865476 0.0
vn 0.5 0.7071067811865476 0.4999999999999999
vn 4.329780281177466e-17 0.7071067811865476 0.7071067811865475
vn -0.4999999999999999 0.7071067811865476 0.5
vn -0.7071067811865475 0.7071067811865476 8.659560562354932e-17
vn -0.5000000000000001 0.7071067811865476 -0.4999999999999999
vn -1.2989340843532398e-16 0.7071067811865476 -0.7071067811865475
vn 0.49999999999999983 0.7071067811865476 -0.5000000000000001
vn 0.7071067811865475 0.7071067811865476 -1.7319121124709863e-16
vn 1.0 6.123233995736766e-17 0.0
vn 0.7071067811865476 6.123233995736766e-17 0.7071067811865475
vn 6.123233995736766e-17 6.123233995736766e-17 1.0
vn -0.7071067811865475 6.123233995736766e-17 0.7071067811865476
vn -1.0 6.123233995736766e-17 1.2246467991473532e-16
vn -0.7071067811865477 6.123233995736766e-17 -0.7071067811865475
vn -1.8369701987210297e-16 6.123233995736766e-17 -1.0
vn 0.7071067811865474 6.123233995736766e-17 -0.7071067811865477
vn 1.0 6.123233995736766e-17 -2.4492935982947064e-16
vn 0.7071067811865476 -0.7071067811865475 0.0
vn 0.5000000000000001 -0.7071067811865475 0.5
vn 4.329780281177467e-17 -0.7071067811865475 0.7071067811865476
vn -0.5 -0.7071067811865475 0.5000000000000001
vn -0.7071067811865476 -0.7071067811865475 8.659560562354934e-17
vn -0.5000000000000001 -0.7071067811865475 -0.5
vn -1.29893408435324e-16 -0.7071067811865475 -0.7071067811865476
vn 0.5 -0.7071067811865476 -0.5000000000000002
vn 0.7071067811865476 -0.7071067811865475 -1.7319121124709868e-16
vn 1.2246467991473532e-16 -1.0 0.0
vn 8.659560562354934e-17 -1.0 8.659560562354932e-17
vn 7.498798913309288e-33 -1.0 1.2246467991473532e-16
vn -8.659560562354932e-17 -1.0 8.659560562354934e-17
vn -1.2246467991473532e-16 -1.0 1.4997597826618576e-32
vn -8.659560562354935e-17 -1.0 -8.659560562354932e-17
vn -2.2496396739927864e-32 -1.0 -1.2246467991473532e-16
vn 8.65956056235493e-17 -1.0 -8.659560562354935e-17
vn 1.2246467991473532e-16 -1.0 -2.999519565323715e-32
vn -0.7071067811865475 -0.7071067811865477 0.0
vn -0.5 -0.7071067811865477 -0.4999999999999999
vn -4.329780281177466e-17 -0.7071067811865477 -0.7071067811865475
vn 0.4999999999999999 -0.7071067811865477 -0.5
vn 0.7071067811865475 -0.7071067811865477 -8.659560562354932e-17
vn 0.5000000000000001 -0.7071067811865477 0.4999999999999999
vn 1.2989340843532398e-16 -0.7071067811865477 0.7071067811865475
vn -0.49999999999999983 -0.7071067811865477 0.5000000000000001
vn -0.7071067811865475 -0.7071067811865477 1.7319121124709863e-16
f 1/1/1 2/2/2 10/10/10
f 9/9/9 1/1/1 10/10/10
f 2/2/2 3/3/3 11/11/11
f 10/10/10 2/2/2 11/11/11
f 3/3/3 4/4/4 12/12/12
f 11/11/11 3/3/3 12/12/12
f 4/4/4 5/5/5 13/13/13
f 12/12/12 4/4/4 13/13/13
f 5/5/5 6/6/6 14/14/14
f 13/13/13 5/5/5 14/14/14
f 6/6/6 7/7/7 15/15/15
f 14/14/14 6/6/6 15/15/15
f 7/7/7 8/8/8 16/16/16
f 15/15/15 7/7/7 16/16/16
f 8/8/8 9/9/9 17/17/17
f 16/16/16 8/8/8 17/17/17
f 9/9/9 10/10/10 18/18/18
f 17/17/17 9/9/9 18/18/18
f 10/10/10 11/11/11 19/19/19
f 18/18/18 10/10/10 19/19/19
f 11/11/11 12/12/12 20/20/20
f 19/19/19 11/11/11 20/20/20
f 12/12/12 13/13/13 21/21/21
f 20/20/20 12/12/12 21/21/21
f 13/13/13 14/14/14 22/22/22
f 21/21/21 13/13/13 22/22/22
f 14/14/14 15/15/15 23/23/23
f 22/22/22 14/14/14 23/23/23
f 15/15/15 16/16/16 24/24/24
f 23/23/23 15/15/15 24/24/24
f 16/16/16 17/17/17 25/25/25
f 24/24/24 16/16/16 25/25/25
f 17/17/17 18/18/18 26/26/26
f 25/25/25 17/17/17 26/26/26
f 18/18/18 19/19/19 27/27/27
f 26/26/26 18/18/18 27/27/27
f 19/19/19 20/20/20 28/28/28
f 27/27/27 19/19/19 28/28/28
f 20/20/20 21/21/21 29/29/29
f 28/28/28 20/20/20 29/29/29
f 21/21/21 22/22/22 30/30/30
f 29/29/29 21/21/21 30/30/30
f 22/22/22 23/23/23 31/31/31
f 30/30/30 22/22/22 31/31/31
f 23/23/23 24/24/24 32/32/32
f 31/31/31 23/23/23 32/32/32
f 24/24/24 25/25/25 33/33/33
f 32/32/32 24/24/24 33/33/33
f 25/25/25 26/26/26 34/34/34
f 33/33/33 25/25/25 34/34/34
f 26/26/26 27/27/27 35/35/35
f 34/34/34 26/26/26 35/35/35
f 27/27/27 28/28/28 36/36/36
f 35/35/35 27/27/27 36/36/36
f 28/28/28 29/29/29 37/37/37
f 36/36/36 28/28/28 37/37/37
f 29/29/29 30/30/30 38/38/38
f 37/37/37 29/29/29 38/38/38
f 30/30/30 31/31/31 39/39/39
f 38/38/38 30/30/30 39/39/39
f 31/31/31 32/32/32 40/40/40
f 39/39/39 31/31/31 40/40/40
f 32/32/32 33/33/33 41/41/41
f 40/40/40 32/32/32 41/41/41
f 33/33/33 34/34/34 42/42/42
f 41/41/41 33/33/33 42/42/42
f 34/34/34 35/35/35 43/43/43
f 42/42/42 34/34/34 43/43/43
f 35/35/35 36/36/36 44/44/44
f 43/43/43 35/35/35 44/44/44
f 36/36/36 37/37/37 45/45/45
f 44/44/44 36/36/36 45/45/45
